<?xml version="1.0" encoding="UTF-8" standalone="no"?>
<!-- Created with Inkscape (http://www.inkscape.org/) -->

<svg
   width="2048mm"
   height="2048mm"
   viewBox="0 0 2048 2048"
   version="1.1"
   id="svg1"
   xml:space="preserve"
   xmlns:xlink="http://www.w3.org/1999/xlink"
   xmlns="http://www.w3.org/2000/svg"
   xmlns:svg="http://www.w3.org/2000/svg"><defs
     id="defs1"><linearGradient
       id="linearGradient24"><stop
         style="stop-color:#74c7ec;stop-opacity:1;"
         offset="0"
         id="stop23" /><stop
         style="stop-color:#f9e2af;stop-opacity:1;"
         offset="0.5"
         id="stop25" /><stop
         style="stop-color:#cba6f7;stop-opacity:1;"
         offset="1"
         id="stop24" /></linearGradient><linearGradient
       gradientUnits="userSpaceOnUse"
       id="linear-gradient-2554fbbc168494bd92c970521b88236e"
       x1="-320"
       x2="128"
       y1="-554.25629"
       y2="221.7025"><stop
         offset="0"
         stop-color="#3e5993"
         id="stop1"
         style="stop-color:#f5c2e7;stop-opacity:1;" /><stop
         offset="0.4736298"
         stop-color="#4564a5"
         id="stop2"
         style="stop-color:#cba6f7;stop-opacity:1;" /><stop
         offset="1"
         stop-color="#4d6fb7"
         id="stop3"
         style="stop-color:#89dceb;stop-opacity:1;" /></linearGradient><linearGradient
       gradientUnits="userSpaceOnUse"
       id="linear-gradient-f683afeaafe0676dd2d738a2ab63a1d7"
       x1="-320"
       x2="128"
       y1="-554.25629"
       y2="221.7025"><stop
         offset="0"
         stop-color="#72a9cf"
         id="stop5"
         style="stop-color:#d74cf5;stop-opacity:1;" /><stop
         offset="100%"
         stop-color="#77b6e1"
         id="stop6" /></linearGradient><radialGradient
       xlink:href="#linear-gradient-f683afeaafe0676dd2d738a2ab63a1d7"
       id="radialGradient28"
       cx="1429.4828"
       cy="301.09738"
       fx="1429.4828"
       fy="301.09738"
       r="274.20453"
       gradientTransform="matrix(-0.21526326,0.27788406,-0.72633126,-0.5626489,2015.0222,84.693338)"
       gradientUnits="userSpaceOnUse" /><radialGradient
       xlink:href="#linear-gradient-2554fbbc168494bd92c970521b88236e"
       id="radialGradient37-4"
       gradientUnits="userSpaceOnUse"
       gradientTransform="matrix(3.8773392,2.2061923,-1.0388743,1.8262804,-3603.5848,-2983.4296)"
       cx="1034.4136"
       cy="552.70282"
       fx="1034.4136"
       fy="552.70282"
       r="274.20453" /><radialGradient
       xlink:href="#linear-gradient-2554fbbc168494bd92c970521b88236e"
       id="radialGradient37-4-3"
       gradientUnits="userSpaceOnUse"
       gradientTransform="matrix(3.8773392,2.2061923,-1.0388743,1.8262804,-3603.5848,-2983.4296)"
       cx="1034.4136"
       cy="552.70282"
       fx="1034.4136"
       fy="552.70282"
       r="274.20453" /><radialGradient
       xlink:href="#linear-gradient-2554fbbc168494bd92c970521b88236e"
       id="radialGradient12"
       gradientUnits="userSpaceOnUse"
       gradientTransform="matrix(3.8773392,2.2061923,-1.0388743,1.8262804,-3603.5848,-2983.4296)"
       cx="1034.4136"
       cy="552.70282"
       fx="1034.4136"
       fy="552.70282"
       r="274.20453" /><linearGradient
       xlink:href="#linearGradient24"
       id="linearGradient23-6-0-0-8"
       gradientUnits="userSpaceOnUse"
       x1="432.36093"
       y1="154.37569"
       x2="579.86096"
       y2="308.80112" /><linearGradient
       xlink:href="#linearGradient24"
       id="linearGradient23-6-0-0-8-4"
       gradientUnits="userSpaceOnUse"
       x1="432.36093"
       y1="154.37569"
       x2="579.86096"
       y2="308.80112" /><linearGradient
       xlink:href="#linearGradient24"
       id="linearGradient23-6-0-0-8-1"
       gradientUnits="userSpaceOnUse"
       x1="432.36093"
       y1="154.37569"
       x2="579.86096"
       y2="308.80112" /><linearGradient
       xlink:href="#linearGradient24"
       id="linearGradient23-6-0-0-8-1-2"
       gradientUnits="userSpaceOnUse"
       x1="432.36093"
       y1="154.37569"
       x2="579.86096"
       y2="308.80112" /></defs><g
     id="layer1"><rect
       style="fill:#181825;fill-opacity:1;stroke-width:0.37864"
       id="rect1"
       width="2048"
       height="2048"
       x="0"
       y="-5.6966142e-05" /></g><g
     id="layer3"
     style="display:inline;fill:url(#radialGradient28);fill-opacity:1"><path
       id="path1-27-0-0-4-6-9"
       style="display:inline;fill:url(#linearGradient23-6-0-0-8);fill-opacity:1;stroke-width:0.264583"
       transform="matrix(-0.12356979,-1.9131557,1.9951072,-0.04971714,-375.34206,3060.7673)"
       d="M 503.81398,451.26739 459.38311,338.61143 a 107.40854,107.40854 44.999997 0 0 -60.5111,-60.5111 L 286.21606,233.66948 a 7.4328463,7.4328463 89.999997 0 1 -1e-5,-13.82902 L 398.87201,175.4096 a 107.40855,107.40855 135 0 0 60.5111,-60.51111 L 503.81397,2.2425317 a 7.4328469,7.4328469 180 0 1 13.82902,-4e-7 L 572.27447,140.7625 a 43.393048,43.393048 44.999997 0 0 24.44648,24.44648 l 138.51996,54.63146 a 7.4328463,7.4328463 89.999997 0 1 10e-6,13.82902 l -112.65596,44.43087 a 107.40854,107.40854 135 0 0 -60.5111,60.5111 L 517.643,451.26738 a 7.4328469,7.4328469 180 0 1 -13.82902,10e-6 z" /><path
       id="path1-27-0-0-4-6-9-2"
       style="display:inline;fill:url(#linearGradient23-6-0-0-8-1);fill-opacity:1;stroke-width:0.264583"
       transform="matrix(-0.12356979,-1.9131557,1.9951072,-0.04971714,-430.828,986.31031)"
       d="M 503.81398,451.26739 459.38311,338.61143 a 107.40854,107.40854 44.999997 0 0 -60.5111,-60.5111 L 286.21606,233.66948 a 7.4328463,7.4328463 89.999997 0 1 -1e-5,-13.82902 L 398.87201,175.4096 a 107.40855,107.40855 135 0 0 60.5111,-60.51111 L 503.81397,2.2425317 a 7.4328469,7.4328469 180 0 1 13.82902,-4e-7 L 572.27447,140.7625 a 43.393048,43.393048 44.999997 0 0 24.44648,24.44648 l 138.51996,54.63146 a 7.4328463,7.4328463 89.999997 0 1 10e-6,13.82902 l -112.65596,44.43087 a 107.40854,107.40854 135 0 0 -60.5111,60.5111 L 517.643,451.26738 a 7.4328469,7.4328469 180 0 1 -13.82902,10e-6 z" /><path
       id="path1-27-0-0-4-6-9-2-1"
       style="display:inline;fill:url(#linearGradient23-6-0-0-8-1-2);fill-opacity:1;stroke-width:0.264583"
       transform="matrix(-0.12356979,-1.9131557,1.9951072,-0.04971714,1700.2483,3038.4431)"
       d="M 503.81398,451.26739 459.38311,338.61143 a 107.40854,107.40854 44.999997 0 0 -60.5111,-60.5111 L 286.21606,233.66948 a 7.4328463,7.4328463 89.999997 0 1 -1e-5,-13.82902 L 398.87201,175.4096 a 107.40855,107.40855 135 0 0 60.5111,-60.51111 L 503.81397,2.2425317 a 7.4328469,7.4328469 180 0 1 13.82902,-4e-7 L 572.27447,140.7625 a 43.393048,43.393048 44.999997 0 0 24.44648,24.44648 l 138.51996,54.63146 a 7.4328463,7.4328463 89.999997 0 1 10e-6,13.82902 l -112.65596,44.43087 a 107.40854,107.40854 135 0 0 -60.5111,60.5111 L 517.643,451.26738 a 7.4328469,7.4328469 180 0 1 -13.82902,10e-6 z" /><path
       id="path1-27-0-0-4-6-9-1"
       style="display:inline;fill:url(#linearGradient23-6-0-0-8-4);fill-opacity:1;stroke-width:0.264583"
       transform="matrix(-0.12356979,-1.9131557,1.9951072,-0.04971714,1644.7623,963.98606)"
       d="M 503.81398,451.26739 459.38311,338.61143 a 107.40854,107.40854 44.999997 0 0 -60.5111,-60.5111 L 286.21606,233.66948 a 7.4328463,7.4328463 89.999997 0 1 -1e-5,-13.82902 L 398.87201,175.4096 a 107.40855,107.40855 135 0 0 60.5111,-60.51111 L 503.81397,2.2425317 a 7.4328469,7.4328469 180 0 1 13.82902,-4e-7 L 572.27447,140.7625 a 43.393048,43.393048 44.999997 0 0 24.44648,24.44648 l 138.51996,54.63146 a 7.4328463,7.4328463 89.999997 0 1 10e-6,13.82902 l -112.65596,44.43087 a 107.40854,107.40854 135 0 0 -60.5111,60.5111 L 517.643,451.26738 a 7.4328469,7.4328469 180 0 1 -13.82902,10e-6 z" /></g><g
     id="layer2"
     style="display:inline"><path
       id="polygon16-4-7"
       style="display:none;fill:url(#radialGradient37-4-3);fill-opacity:1"
       transform="matrix(0.39687499,0,0,0.39687499,1267.3526,410.08198)"
       d="m -259.2,437.86245 -51.2,-88.681 a 33.255376,33.255376 90 0 1 0,-33.25538 L -136.8,15.242047 a 30.484094,30.484094 90 0 0 0,-30.484094 L -297.6,-293.75581 a 22.170251,22.170251 90 0 1 0,-22.17026 l 93.6,-162.11996 a 32.331615,32.331615 180 0 1 56,0 l 525.6,910.36591 a 7.3900835,7.3900835 120 0 1 -6.4,11.08513 l -230.4,0 A 22.170251,22.170251 30 0 1 121.6,432.31988 L 6.4,232.78763 a 7.3900834,7.3900834 0 0 0 -12.8,0 l -118.4,205.07482 a 11.085125,11.085125 150 0 1 -9.6,5.54256 h -115.2 a 11.085125,11.085125 30 0 1 -9.6,-5.54256 z" /></g><g
     id="layer4"
     style="display:inline"><g
       id="g18"
       transform="matrix(1.8265979,-2.3758952e-8,2.3758952e-8,1.8265979,-1715.9981,195.26231)"><path
         id="polygon16-4"
         style="fill:url(#radialGradient37-4);fill-opacity:1"
         transform="matrix(-0.19843749,0.34370382,-0.34370382,-0.19843749,1402.6091,518.87637)"
         d="m -259.2,437.86245 -51.2,-88.681 a 33.255376,33.255376 90 0 1 0,-33.25538 L -136.8,15.242047 a 30.484094,30.484094 90 0 0 0,-30.484094 L -297.6,-293.75581 a 22.170251,22.170251 90 0 1 0,-22.17026 l 93.6,-162.11996 a 32.331615,32.331615 180 0 1 56,0 l 525.6,910.36591 a 7.3900835,7.3900835 120 0 1 -6.4,11.08513 l -230.4,0 A 22.170251,22.170251 30 0 1 121.6,432.31988 L 6.4,232.78763 a 7.3900834,7.3900834 0 0 0 -12.8,0 l -118.4,205.07482 a 11.085125,11.085125 150 0 1 -9.6,5.54256 h -115.2 a 11.085125,11.085125 30 0 1 -9.6,-5.54256 z" /><path
         id="path10"
         style="fill:url(#radialGradient12);fill-opacity:1"
         transform="matrix(0.19843749,-0.34370382,0.34370382,0.19843749,1599.1425,386.8941)"
         d="m -259.2,437.86245 -51.2,-88.681 a 33.255376,33.255376 90 0 1 0,-33.25538 L -136.8,15.242047 a 30.484094,30.484094 90 0 0 0,-30.484094 L -297.6,-293.75581 a 22.170251,22.170251 90 0 1 0,-22.17026 l 93.6,-162.11996 a 32.331615,32.331615 180 0 1 56,0 l 525.6,910.36591 a 7.3900835,7.3900835 120 0 1 -6.4,11.08513 l -230.4,0 A 22.170251,22.170251 30 0 1 121.6,432.31988 L 6.4,232.78763 a 7.3900834,7.3900834 0 0 0 -12.8,0 l -118.4,205.07482 a 11.085125,11.085125 150 0 1 -9.6,5.54256 h -115.2 a 11.085125,11.085125 30 0 1 -9.6,-5.54256 z" /></g></g></svg>
